<?xml version="1.0" standalone="no"?>
<!DOCTYPE svg PUBLIC "-//W3C//DTD SVG 20010904//EN"
 "http://www.w3.org/TR/2001/REC-SVG-20010904/DTD/svg10.dtd">
<svg version="1.0" xmlns="http://www.w3.org/2000/svg"
 width="133.000000pt" height="133.000000pt" viewBox="0 0 133.000000 133.000000"
 preserveAspectRatio="xMidYMid meet">

<g transform="translate(0.000000,133.000000) scale(0.100000,-0.100000)"
fill="#000000" stroke="none">
<path d="M268 1100 c-92 -28 -119 -70 -126 -199 -6 -128 -32 -175 -104 -190
-30 -6 -33 -10 -33 -41 0 -31 3 -35 33 -41 72 -15 98 -62 104 -192 6 -108 17
-133 78 -175 26 -17 47 -22 101 -22 66 0 69 1 69 24 0 21 -6 24 -52 29 -59 7
-99 32 -109 68 -4 13 -7 60 -8 105 -1 67 -5 87 -24 115 -20 29 -64 66 -100 83
-9 5 -9 7 0 12 32 15 78 52 97 77 17 23 22 48 26 133 5 96 7 106 32 131 21 20
39 27 82 31 54 4 56 6 56 33 0 28 -2 29 -47 28 -27 0 -60 -4 -75 -9z"/>
<path d="M940 1081 c0 -29 2 -31 39 -31 100 0 131 -37 131 -157 1 -103 23
-153 84 -191 25 -15 46 -29 46 -32 0 -3 -16 -14 -36 -25 -20 -11 -48 -35 -62
-53 -23 -30 -27 -47 -32 -138 -7 -129 -21 -150 -111 -160 -54 -6 -59 -9 -59
-30 0 -23 3 -24 66 -24 129 0 184 61 184 203 0 115 27 166 100 184 31 8 35 13
35 43 0 30 -4 35 -35 43 -73 18 -100 68 -100 184 -1 143 -48 199 -180 210
l-70 6 0 -32z"/>
<path d="M550 660 l0 -250 45 0 45 0 2 183 3 182 55 28 c45 23 65 28 108 24
l52 -4 0 45 0 44 -59 -4 c-45 -3 -73 -12 -110 -36 l-51 -31 0 34 c0 35 0 35
-45 35 l-45 0 0 -250z"/>
</g>
</svg>
